<?xml version="1.0" encoding="UTF-8" standalone="no"?><!DOCTYPE svg PUBLIC "-//W3C//DTD SVG 1.1//EN" "http://www.w3.org/Graphics/SVG/1.1/DTD/svg11.dtd"><!-- Generated by graphviz version 2.40.1 (20161225.0304)
 --><!-- Title: G Pages: 1 --><svg xmlns="http://www.w3.org/2000/svg" xmlns:xlink="http://www.w3.org/1999/xlink" width="2009pt" height="980pt" viewBox="0.00 0.00 2008.66 980.00">
<g id="graph0" class="graph" transform="scale(1 1) rotate(0) translate(4 976)">
<title>G</title>
<polygon fill="#ffffff" stroke="transparent" points="-4,4 -4,-976 2004.6552,-976 2004.6552,4 -4,4"/>
<!-- cv -->
<g id="node1" class="node">
<title>cv</title>
<ellipse fill="none" stroke="#000000" cx="294.1835" cy="-954" rx="27" ry="18"/>
<text text-anchor="middle" x="294.1835" y="-949.8" font-family="Times,serif" font-size="14.00" fill="#000000">cv</text>
</g>
<!-- xz -->
<g id="node2" class="node">
<title>xz</title>
<ellipse fill="none" stroke="#000000" cx="294.1835" cy="-882" rx="27" ry="18"/>
<text text-anchor="middle" x="294.1835" y="-877.8" font-family="Times,serif" font-size="14.00" fill="#000000">xz</text>
</g>
<!-- cv&#45;&gt;xz -->
<g id="edge1" class="edge">
<title>cv-&gt;xz</title>
<path fill="none" stroke="#000000" d="M294.1835,-935.8314C294.1835,-928.131 294.1835,-918.9743 294.1835,-910.4166"/>
<polygon fill="#000000" stroke="#000000" points="297.6836,-910.4132 294.1835,-900.4133 290.6836,-910.4133 297.6836,-910.4132"/>
</g>
<!-- jd -->
<g id="node15" class="node">
<title>jd</title>
<ellipse fill="none" stroke="#000000" cx="294.1835" cy="-810" rx="27" ry="18"/>
<text text-anchor="middle" x="294.1835" y="-805.8" font-family="Times,serif" font-size="14.00" fill="#000000">jd</text>
</g>
<!-- xz&#45;&gt;jd -->
<g id="edge11" class="edge">
<title>xz-&gt;jd</title>
<path fill="none" stroke="#000000" d="M294.1835,-863.8314C294.1835,-856.131 294.1835,-846.9743 294.1835,-838.4166"/>
<polygon fill="#000000" stroke="#000000" points="297.6836,-838.4132 294.1835,-828.4133 290.6836,-838.4133 297.6836,-838.4132"/>
</g>
<!-- kt -->
<g id="node3" class="node">
<title>kt</title>
<ellipse fill="none" stroke="#000000" cx="115.1835" cy="-450" rx="27" ry="18"/>
<text text-anchor="middle" x="115.1835" y="-445.8" font-family="Times,serif" font-size="14.00" fill="#000000">kt</text>
</g>
<!-- qx -->
<g id="node4" class="node">
<title>qx</title>
<ellipse fill="none" stroke="#000000" cx="222.1835" cy="-738" rx="30.7401" ry="18"/>
<text text-anchor="middle" x="222.1835" y="-733.8" font-family="Times,serif" font-size="14.00" fill="#000000">&amp; qx</text>
</g>
<!-- kt&#45;&gt;qx -->
<g id="edge2" class="edge">
<title>kt-&gt;qx</title>
<path fill="none" stroke="#000000" d="M99.3811,-464.7829C59.4784,-503.8848 -38.3364,-611.9615 17.1835,-684 37.1291,-709.8801 128.023,-725.8372 181.8536,-733.1864"/>
<polygon fill="#000000" stroke="#000000" points="181.3977,-736.6565 191.7708,-734.5005 182.3172,-729.7172 181.3977,-736.6565"/>
</g>
<!-- rz -->
<g id="node5" class="node">
<title>rz</title>
<ellipse fill="none" stroke="#000000" cx="370.1835" cy="-378" rx="27" ry="18"/>
<text text-anchor="middle" x="370.1835" y="-373.8" font-family="Times,serif" font-size="14.00" fill="#000000">rz</text>
</g>
<!-- kt&#45;&gt;rz -->
<g id="edge3" class="edge">
<title>kt-&gt;rz</title>
<path fill="none" stroke="#000000" d="M138.3886,-440.2935C145.6247,-437.4365 153.6769,-434.4287 161.1835,-432 221.1726,-412.5908 292.581,-395.3699 334.4895,-385.844"/>
<polygon fill="#000000" stroke="#000000" points="335.4981,-389.2046 344.4838,-383.5913 333.9589,-382.3759 335.4981,-389.2046"/>
</g>
<!-- qx&#45;&gt;cv -->
<g id="edge51" class="edge">
<title>qx-&gt;cv</title>
<path fill="none" stroke="#000000" d="M223.7303,-756.2867C226.8811,-787.1539 235.7496,-851.0161 258.1835,-900 262.8282,-910.1417 269.2644,-920.5152 275.4118,-929.4245"/>
<polygon fill="#000000" stroke="#000000" points="272.7236,-931.6825 281.3859,-937.7829 278.4185,-927.6121 272.7236,-931.6825"/>
</g>
<!-- qx&#45;&gt;xz -->
<g id="edge53" class="edge">
<title>qx-&gt;xz</title>
<path fill="none" stroke="#000000" d="M228.0466,-755.7328C234.4465,-774.2405 245.4915,-803.8722 258.1835,-828 263.3765,-837.8721 269.9369,-848.1846 276.0305,-857.1204"/>
<polygon fill="#000000" stroke="#000000" points="273.3068,-859.3333 281.9005,-865.53 279.0468,-855.3267 273.3068,-859.3333"/>
</g>
<!-- cb -->
<g id="node6" class="node">
<title>cb</title>
<ellipse fill="none" stroke="#000000" cx="115.1835" cy="-522" rx="27" ry="18"/>
<text text-anchor="middle" x="115.1835" y="-517.8" font-family="Times,serif" font-size="14.00" fill="#000000">cb</text>
</g>
<!-- qx&#45;&gt;cb -->
<g id="edge50" class="edge">
<title>qx-&gt;cb</title>
<path fill="none" stroke="#000000" d="M204.1898,-723.0464C193.0755,-712.9933 179.2533,-698.8962 170.1835,-684 156.187,-661.0124 134.4446,-589.3872 122.9372,-549.5063"/>
<polygon fill="#000000" stroke="#000000" points="126.2944,-548.5162 120.1766,-539.8662 119.5649,-550.4433 126.2944,-548.5162"/>
</g>
<!-- vm -->
<g id="node35" class="node">
<title>vm</title>
<ellipse fill="none" stroke="#000000" cx="315.1835" cy="-666" rx="27" ry="18"/>
<text text-anchor="middle" x="315.1835" y="-661.8" font-family="Times,serif" font-size="14.00" fill="#000000">vm</text>
</g>
<!-- qx&#45;&gt;vm -->
<g id="edge54" class="edge">
<title>qx-&gt;vm</title>
<path fill="none" stroke="#000000" d="M241.0034,-723.4297C254.8861,-712.6819 273.9441,-697.9272 289.2666,-686.0647"/>
<polygon fill="#000000" stroke="#000000" points="291.5735,-688.7051 297.3381,-679.8158 287.2882,-683.17 291.5735,-688.7051"/>
</g>
<!-- bx -->
<g id="node43" class="node">
<title>bx</title>
<ellipse fill="none" stroke="#000000" cx="53.1835" cy="-666" rx="27" ry="18"/>
<text text-anchor="middle" x="53.1835" y="-661.8" font-family="Times,serif" font-size="14.00" fill="#000000">bx</text>
</g>
<!-- qx&#45;&gt;bx -->
<g id="edge52" class="edge">
<title>qx-&gt;bx</title>
<path fill="none" stroke="#000000" d="M194.9393,-729.3004C166.9326,-718.7042 122.845,-700.2104 85.1835,-684 84.1838,-683.5697 83.1708,-683.1327 82.1505,-682.6909"/>
<polygon fill="#000000" stroke="#000000" points="83.4919,-679.4573 72.9285,-678.6414 80.6774,-685.8667 83.4919,-679.4573"/>
</g>
<!-- zl -->
<g id="node50" class="node">
<title>zl</title>
<ellipse fill="none" stroke="#000000" cx="768.1835" cy="-666" rx="27.8667" ry="18"/>
<text text-anchor="middle" x="768.1835" y="-661.8" font-family="Times,serif" font-size="14.00" fill="#000000">&amp; zl</text>
</g>
<!-- qx&#45;&gt;zl -->
<g id="edge55" class="edge">
<title>qx-&gt;zl</title>
<path fill="none" stroke="#000000" d="M252.3165,-734.0264C345.3776,-721.7546 628.1094,-684.4713 730.5839,-670.9582"/>
<polygon fill="#000000" stroke="#000000" points="731.3131,-674.3924 740.7697,-669.615 730.3979,-667.4525 731.3131,-674.3924"/>
</g>
<!-- rz&#45;&gt;cv -->
<g id="edge98" class="edge">
<title>rz-&gt;cv</title>
<path fill="none" stroke="#000000" d="M377.8733,-395.3446C388.977,-422.0126 408.1835,-474.9424 408.1835,-522 408.1835,-810 408.1835,-810 408.1835,-810 408.1835,-865.0281 356.3755,-911.3053 322.6105,-935.6223"/>
<polygon fill="#000000" stroke="#000000" points="320.2363,-933.0112 314.0407,-941.6058 324.2437,-938.7507 320.2363,-933.0112"/>
</g>
<!-- rz&#45;&gt;qx -->
<g id="edge97" class="edge">
<title>rz-&gt;qx</title>
<path fill="none" stroke="#000000" d="M370.1835,-396.1854C370.1835,-423.5017 370.1835,-476.75 370.1835,-522 370.1835,-594 370.1835,-594 370.1835,-594 370.1835,-634.8816 377.2441,-652.5016 351.1835,-684 328.8936,-710.9408 290.8558,-724.6597 261.8434,-731.5067"/>
<polygon fill="#000000" stroke="#000000" points="261.0236,-728.1031 251.9984,-733.6524 262.5143,-734.9426 261.0236,-728.1031"/>
</g>
<!-- cb&#45;&gt;kt -->
<g id="edge4" class="edge">
<title>cb-&gt;kt</title>
<path fill="none" stroke="#000000" d="M115.1835,-503.8314C115.1835,-496.131 115.1835,-486.9743 115.1835,-478.4166"/>
<polygon fill="#000000" stroke="#000000" points="118.6836,-478.4132 115.1835,-468.4133 111.6836,-478.4133 118.6836,-478.4132"/>
</g>
<!-- pl -->
<g id="node7" class="node">
<title>pl</title>
<ellipse fill="none" stroke="#000000" cx="672.1835" cy="-378" rx="27" ry="18"/>
<text text-anchor="middle" x="672.1835" y="-373.8" font-family="Times,serif" font-size="14.00" fill="#000000">pl</text>
</g>
<!-- sf -->
<g id="node8" class="node">
<title>sf</title>
<ellipse fill="none" stroke="#000000" cx="615.1835" cy="-306" rx="27" ry="18"/>
<text text-anchor="middle" x="615.1835" y="-301.8" font-family="Times,serif" font-size="14.00" fill="#000000">sf</text>
</g>
<!-- pl&#45;&gt;sf -->
<g id="edge5" class="edge">
<title>pl-&gt;sf</title>
<path fill="none" stroke="#000000" d="M659.5333,-362.0209C652.0799,-352.6061 642.5059,-340.5126 634.1621,-329.973"/>
<polygon fill="#000000" stroke="#000000" points="636.7495,-327.6025 627.7982,-321.9345 631.2611,-331.9474 636.7495,-327.6025"/>
</g>
<!-- db -->
<g id="node9" class="node">
<title>db</title>
<ellipse fill="none" stroke="#000000" cx="674.1835" cy="-738" rx="30.7401" ry="18"/>
<text text-anchor="middle" x="674.1835" y="-733.8" font-family="Times,serif" font-size="14.00" fill="#000000">&amp; db</text>
</g>
<!-- pl&#45;&gt;db -->
<g id="edge6" class="edge">
<title>pl-&gt;db</title>
<path fill="none" stroke="#000000" d="M695.6003,-387.2683C738.2376,-405.8634 824.1835,-452.0249 824.1835,-522 824.1835,-594 824.1835,-594 824.1835,-594 824.1835,-634.8816 831.3299,-652.5727 805.1835,-684 782.4545,-711.3195 743.6602,-725.0019 714.1708,-731.7384"/>
<polygon fill="#000000" stroke="#000000" points="713.2349,-728.3585 704.1697,-733.8424 714.6761,-735.2086 713.2349,-728.3585"/>
</g>
<!-- bp -->
<g id="node34" class="node">
<title>bp</title>
<ellipse fill="none" stroke="#000000" cx="577.1835" cy="-234" rx="27" ry="18"/>
<text text-anchor="middle" x="577.1835" y="-229.8" font-family="Times,serif" font-size="14.00" fill="#000000">bp</text>
</g>
<!-- sf&#45;&gt;bp -->
<g id="edge28" class="edge">
<title>sf-&gt;bp</title>
<path fill="none" stroke="#000000" d="M606.178,-288.937C601.7007,-280.4537 596.1883,-270.0092 591.1764,-260.513"/>
<polygon fill="#000000" stroke="#000000" points="594.1512,-258.6509 586.3883,-251.4407 587.9605,-261.9182 594.1512,-258.6509"/>
</g>
<!-- db&#45;&gt;sf -->
<g id="edge63" class="edge">
<title>db-&gt;sf</title>
<path fill="none" stroke="#000000" d="M659.1683,-722.1696C637.0196,-697.087 598.1835,-645.7309 598.1835,-594 598.1835,-594 598.1835,-594 598.1835,-450 598.1835,-409.5973 604.8653,-363.2552 609.8508,-334.3013"/>
<polygon fill="#000000" stroke="#000000" points="613.3591,-334.5623 611.661,-324.1045 606.4669,-333.3387 613.3591,-334.5623"/>
</g>
<!-- ff -->
<g id="node25" class="node">
<title>ff</title>
<ellipse fill="none" stroke="#000000" cx="672.1835" cy="-450" rx="27" ry="18"/>
<text text-anchor="middle" x="672.1835" y="-445.8" font-family="Times,serif" font-size="14.00" fill="#000000">ff</text>
</g>
<!-- db&#45;&gt;ff -->
<g id="edge61" class="edge">
<title>db-&gt;ff</title>
<path fill="none" stroke="#000000" d="M669.8784,-719.9905C661.0859,-680.6107 642.8934,-583.9671 655.1835,-504 656.5421,-495.1598 659.0829,-485.7811 661.7938,-477.3637"/>
<polygon fill="#000000" stroke="#000000" points="665.1835,-478.2687 665.1168,-467.674 658.562,-475.9979 665.1835,-478.2687"/>
</g>
<!-- xf -->
<g id="node30" class="node">
<title>xf</title>
<ellipse fill="none" stroke="#000000" cx="953.1835" cy="-666" rx="29.0123" ry="18"/>
<text text-anchor="middle" x="953.1835" y="-661.8" font-family="Times,serif" font-size="14.00" fill="#000000">&amp; xf</text>
</g>
<!-- db&#45;&gt;xf -->
<g id="edge66" class="edge">
<title>db-&gt;xf</title>
<path fill="none" stroke="#000000" d="M704.0758,-733.4984C750.2154,-726.0634 841.1895,-709.4606 915.1835,-684 917.099,-683.3409 919.0457,-682.6132 920.9944,-681.8395"/>
<polygon fill="#000000" stroke="#000000" points="922.82,-684.864 930.6186,-677.6924 920.0498,-678.4354 922.82,-684.864"/>
</g>
<!-- ds -->
<g id="node37" class="node">
<title>ds</title>
<ellipse fill="none" stroke="#000000" cx="879.1835" cy="-666" rx="27" ry="18"/>
<text text-anchor="middle" x="879.1835" y="-661.8" font-family="Times,serif" font-size="14.00" fill="#000000">ds</text>
</g>
<!-- db&#45;&gt;ds -->
<g id="edge62" class="edge">
<title>db-&gt;ds</title>
<path fill="none" stroke="#000000" d="M701.7418,-729.8089C734.5579,-719.8528 790.8774,-702.1249 838.1835,-684 841.2323,-682.8318 844.3844,-681.5625 847.5237,-680.2566"/>
<polygon fill="#000000" stroke="#000000" points="848.9698,-683.4449 856.7874,-676.2939 846.2167,-677.009 848.9698,-683.4449"/>
</g>
<!-- ch -->
<g id="node47" class="node">
<title>ch</title>
<ellipse fill="none" stroke="#000000" cx="706.1835" cy="-882" rx="27" ry="18"/>
<text text-anchor="middle" x="706.1835" y="-877.8" font-family="Times,serif" font-size="14.00" fill="#000000">ch</text>
</g>
<!-- db&#45;&gt;ch -->
<g id="edge64" class="edge">
<title>db-&gt;ch</title>
<path fill="none" stroke="#000000" d="M682.7157,-755.6392C690.6763,-780.1209 700.8673,-824.6679 705.4032,-853.7948"/>
<polygon fill="#000000" stroke="#000000" points="701.9463,-854.3466 706.8038,-863.7623 708.8782,-853.3725 701.9463,-854.3466"/>
</g>
<!-- cc -->
<g id="node49" class="node">
<title>cc</title>
<ellipse fill="none" stroke="#000000" cx="729.1835" cy="-594" rx="27" ry="18"/>
<text text-anchor="middle" x="729.1835" y="-589.8" font-family="Times,serif" font-size="14.00" fill="#000000">cc</text>
</g>
<!-- db&#45;&gt;cc -->
<g id="edge65" class="edge">
<title>db-&gt;cc</title>
<path fill="none" stroke="#000000" d="M680.9275,-720.3428C690.3702,-695.6202 707.6186,-650.4608 718.732,-621.3639"/>
<polygon fill="#000000" stroke="#000000" points="722.0857,-622.3923 722.3842,-611.8017 715.5465,-619.8946 722.0857,-622.3923"/>
</g>
<!-- zd -->
<g id="node10" class="node">
<title>zd</title>
<ellipse fill="none" stroke="#000000" cx="1267.1835" cy="-594" rx="27" ry="18"/>
<text text-anchor="middle" x="1267.1835" y="-589.8" font-family="Times,serif" font-size="14.00" fill="#000000">zd</text>
</g>
<!-- ln -->
<g id="node11" class="node">
<title>ln</title>
<ellipse fill="none" stroke="#000000" cx="1305.1835" cy="-522" rx="27" ry="18"/>
<text text-anchor="middle" x="1305.1835" y="-517.8" font-family="Times,serif" font-size="14.00" fill="#000000">ln</text>
</g>
<!-- zd&#45;&gt;ln -->
<g id="edge7" class="edge">
<title>zd-&gt;ln</title>
<path fill="none" stroke="#000000" d="M1276.1889,-576.937C1280.6662,-568.4537 1286.1786,-558.0092 1291.1905,-548.513"/>
<polygon fill="#000000" stroke="#000000" points="1294.4064,-549.9182 1295.9787,-539.4407 1288.2157,-546.6509 1294.4064,-549.9182"/>
</g>
<!-- gf -->
<g id="node12" class="node">
<title>gf</title>
<ellipse fill="none" stroke="#000000" cx="1276.1835" cy="-738" rx="29.0123" ry="18"/>
<text text-anchor="middle" x="1276.1835" y="-733.8" font-family="Times,serif" font-size="14.00" fill="#000000">&amp; gf</text>
</g>
<!-- zd&#45;&gt;gf -->
<g id="edge8" class="edge">
<title>zd-&gt;gf</title>
<path fill="none" stroke="#000000" d="M1268.3141,-612.0896C1269.8443,-636.5727 1272.5908,-680.5174 1274.4004,-709.4713"/>
<polygon fill="#000000" stroke="#000000" points="1270.9265,-710.0001 1275.0436,-719.7623 1277.9129,-709.5634 1270.9265,-710.0001"/>
</g>
<!-- ln&#45;&gt;gf -->
<g id="edge39" class="edge">
<title>ln-&gt;gf</title>
<path fill="none" stroke="#000000" d="M1305.7785,-539.9988C1306.1476,-558.2166 1306.094,-587.1638 1303.1835,-612 1299.1735,-646.2181 1290.2173,-684.8641 1283.717,-710.2279"/>
<polygon fill="#000000" stroke="#000000" points="1280.2445,-709.6733 1281.103,-720.2333 1287.0172,-711.4428 1280.2445,-709.6733"/>
</g>
<!-- qq -->
<g id="node20" class="node">
<title>qq</title>
<ellipse fill="none" stroke="#000000" cx="1343.1835" cy="-450" rx="27" ry="18"/>
<text text-anchor="middle" x="1343.1835" y="-445.8" font-family="Times,serif" font-size="14.00" fill="#000000">qq</text>
</g>
<!-- ln&#45;&gt;qq -->
<g id="edge40" class="edge">
<title>ln-&gt;qq</title>
<path fill="none" stroke="#000000" d="M1314.1889,-504.937C1318.6662,-496.4537 1324.1786,-486.0092 1329.1905,-476.513"/>
<polygon fill="#000000" stroke="#000000" points="1332.4064,-477.9182 1333.9787,-467.4407 1326.2157,-474.6509 1332.4064,-477.9182"/>
</g>
<!-- qm -->
<g id="node21" class="node">
<title>qm</title>
<ellipse fill="none" stroke="#000000" cx="1362.1835" cy="-378" rx="27" ry="18"/>
<text text-anchor="middle" x="1362.1835" y="-373.8" font-family="Times,serif" font-size="14.00" fill="#000000">qm</text>
</g>
<!-- gf&#45;&gt;qm -->
<g id="edge102" class="edge">
<title>gf-&gt;qm</title>
<path fill="none" stroke="#000000" d="M1297.7138,-725.7833C1332.7376,-704.1257 1398.1835,-655.4364 1398.1835,-594 1398.1835,-594 1398.1835,-594 1398.1835,-522 1398.1835,-480.2294 1383.7505,-433.6235 1373.1619,-405.052"/>
<polygon fill="#000000" stroke="#000000" points="1376.3068,-403.4765 1369.4686,-395.384 1369.7677,-405.9746 1376.3068,-403.4765"/>
</g>
<!-- xn -->
<g id="node22" class="node">
<title>xn</title>
<ellipse fill="none" stroke="#000000" cx="1069.1835" cy="-666" rx="30.7401" ry="18"/>
<text text-anchor="middle" x="1069.1835" y="-661.8" font-family="Times,serif" font-size="14.00" fill="#000000">&amp; xn</text>
</g>
<!-- gf&#45;&gt;xn -->
<g id="edge103" class="edge">
<title>gf-&gt;xn</title>
<path fill="none" stroke="#000000" d="M1249.8386,-730.4603C1216.6639,-720.7433 1158.0886,-702.8447 1109.1835,-684 1106.9651,-683.1452 1104.6929,-682.2312 1102.4131,-681.2851"/>
<polygon fill="#000000" stroke="#000000" points="1103.6848,-678.0221 1093.1156,-677.2851 1100.9183,-684.4523 1103.6848,-678.0221"/>
</g>
<!-- sr -->
<g id="node46" class="node">
<title>sr</title>
<ellipse fill="none" stroke="#000000" cx="1244.1835" cy="-882" rx="27" ry="18"/>
<text text-anchor="middle" x="1244.1835" y="-877.8" font-family="Times,serif" font-size="14.00" fill="#000000">sr</text>
</g>
<!-- gf&#45;&gt;sr -->
<g id="edge104" class="edge">
<title>gf-&gt;sr</title>
<path fill="none" stroke="#000000" d="M1276.7914,-756.3394C1273.7391,-781.2488 1264.0467,-825.9692 1255.6487,-854.7954"/>
<polygon fill="#000000" stroke="#000000" points="1252.2183,-854.0433 1252.6279,-864.6302 1258.9098,-856.0986 1252.2183,-854.0433"/>
</g>
<!-- fj -->
<g id="node52" class="node">
<title>fj</title>
<ellipse fill="none" stroke="#000000" cx="1145.1835" cy="-666" rx="27" ry="18"/>
<text text-anchor="middle" x="1145.1835" y="-661.8" font-family="Times,serif" font-size="14.00" fill="#000000">fj</text>
</g>
<!-- gf&#45;&gt;fj -->
<g id="edge101" class="edge">
<title>gf-&gt;fj</title>
<path fill="none" stroke="#000000" d="M1254.257,-725.9488C1232.6518,-714.0742 1199.4707,-695.8373 1175.3783,-682.5956"/>
<polygon fill="#000000" stroke="#000000" points="1176.7621,-679.3624 1166.3127,-677.613 1173.3905,-685.497 1176.7621,-679.3624"/>
</g>
<!-- bf -->
<g id="node13" class="node">
<title>bf</title>
<ellipse fill="none" stroke="#000000" cx="239.1835" cy="-522" rx="27" ry="18"/>
<text text-anchor="middle" x="239.1835" y="-517.8" font-family="Times,serif" font-size="14.00" fill="#000000">bf</text>
</g>
<!-- bf&#45;&gt;qx -->
<g id="edge9" class="edge">
<title>bf-&gt;qx</title>
<path fill="none" stroke="#000000" d="M237.7554,-540.1451C234.7922,-577.7945 227.9571,-664.6409 224.41,-709.7103"/>
<polygon fill="#000000" stroke="#000000" points="220.8991,-709.7117 223.6036,-719.9555 227.8775,-710.261 220.8991,-709.7117"/>
</g>
<!-- pf -->
<g id="node14" class="node">
<title>pf</title>
<ellipse fill="none" stroke="#000000" cx="197.1835" cy="-450" rx="27" ry="18"/>
<text text-anchor="middle" x="197.1835" y="-445.8" font-family="Times,serif" font-size="14.00" fill="#000000">pf</text>
</g>
<!-- bf&#45;&gt;pf -->
<g id="edge10" class="edge">
<title>bf-&gt;pf</title>
<path fill="none" stroke="#000000" d="M229.23,-504.937C224.1564,-496.2393 217.8801,-485.4799 212.2304,-475.7948"/>
<polygon fill="#000000" stroke="#000000" points="215.1274,-473.8148 207.0654,-466.9405 209.081,-477.3419 215.1274,-473.8148"/>
</g>
<!-- pf&#45;&gt;qx -->
<g id="edge87" class="edge">
<title>pf-&gt;qx</title>
<path fill="none" stroke="#000000" d="M198.246,-468.283C199.34,-486.4752 201.1659,-515.183 203.1835,-540 208.0987,-600.4611 215.2144,-671.1736 219.1964,-709.602"/>
<polygon fill="#000000" stroke="#000000" points="215.762,-710.4137 220.279,-719.9974 222.7243,-709.6886 215.762,-710.4137"/>
</g>
<!-- jd&#45;&gt;qx -->
<g id="edge29" class="edge">
<title>jd-&gt;qx</title>
<path fill="none" stroke="#000000" d="M278.9141,-794.7307C269.1206,-784.9372 256.2221,-772.0387 245.1991,-761.0156"/>
<polygon fill="#000000" stroke="#000000" points="247.4745,-758.3413 237.9285,-753.7451 242.5248,-763.2911 247.4745,-758.3413"/>
</g>
<!-- jd&#45;&gt;vm -->
<g id="edge30" class="edge">
<title>jd-&gt;vm</title>
<path fill="none" stroke="#000000" d="M296.8007,-792.0535C300.3847,-767.4774 306.8563,-723.1008 311.0859,-694.0974"/>
<polygon fill="#000000" stroke="#000000" points="314.5535,-694.5731 312.5333,-684.1727 307.6268,-693.5629 314.5535,-694.5731"/>
</g>
<!-- xm -->
<g id="node16" class="node">
<title>xm</title>
<ellipse fill="none" stroke="#000000" cx="474.1835" cy="-18" rx="27" ry="18"/>
<text text-anchor="middle" x="474.1835" y="-13.8" font-family="Times,serif" font-size="14.00" fill="#000000">xm</text>
</g>
<!-- xm&#45;&gt;db -->
<g id="edge12" class="edge">
<title>xm-&gt;db</title>
<path fill="none" stroke="#000000" d="M468.3818,-35.9672C460.1805,-63.0051 446.1835,-115.9025 446.1835,-162 446.1835,-594 446.1835,-594 446.1835,-594 446.1835,-639.3333 459.1094,-655.2785 494.1835,-684 534.2706,-716.8266 593.8912,-729.7063 633.3836,-734.7544"/>
<polygon fill="#000000" stroke="#000000" points="633.1224,-738.2476 643.4604,-735.9287 633.9328,-731.2946 633.1224,-738.2476"/>
</g>
<!-- vz -->
<g id="node17" class="node">
<title>vz</title>
<ellipse fill="none" stroke="#000000" cx="1767.1835" cy="-378" rx="27" ry="18"/>
<text text-anchor="middle" x="1767.1835" y="-373.8" font-family="Times,serif" font-size="14.00" fill="#000000">vz</text>
</g>
<!-- cr -->
<g id="node18" class="node">
<title>cr</title>
<ellipse fill="none" stroke="#000000" cx="1643.1835" cy="-306" rx="27" ry="18"/>
<text text-anchor="middle" x="1643.1835" y="-301.8" font-family="Times,serif" font-size="14.00" fill="#000000">cr</text>
</g>
<!-- vz&#45;&gt;cr -->
<g id="edge13" class="edge">
<title>vz-&gt;cr</title>
<path fill="none" stroke="#000000" d="M1746.7074,-366.1107C1726.5143,-354.3857 1695.4453,-336.3456 1672.6098,-323.0862"/>
<polygon fill="#000000" stroke="#000000" points="1674.0954,-319.9016 1663.69,-317.907 1670.5804,-325.9552 1674.0954,-319.9016"/>
</g>
<!-- vc -->
<g id="node19" class="node">
<title>vc</title>
<ellipse fill="none" stroke="#000000" cx="1725.1835" cy="-810" rx="30.1563" ry="18"/>
<text text-anchor="middle" x="1725.1835" y="-805.8" font-family="Times,serif" font-size="14.00" fill="#000000">&amp; vc</text>
</g>
<!-- vz&#45;&gt;vc -->
<g id="edge14" class="edge">
<title>vz-&gt;vc</title>
<path fill="none" stroke="#000000" d="M1782.7951,-392.7668C1806.8382,-417.1879 1850.1835,-468.6173 1850.1835,-522 1850.1835,-666 1850.1835,-666 1850.1835,-666 1850.1835,-723.0702 1793.4999,-768.5776 1756.4742,-792.2155"/>
<polygon fill="#000000" stroke="#000000" points="1754.1941,-789.5104 1747.531,-797.7477 1757.8766,-795.4635 1754.1941,-789.5104"/>
</g>
<!-- cr&#45;&gt;vc -->
<g id="edge69" class="edge">
<title>cr-&gt;vc</title>
<path fill="none" stroke="#000000" d="M1639.661,-324.1045C1634.6816,-351.3176 1626.1835,-404.4358 1626.1835,-450 1626.1835,-666 1626.1835,-666 1626.1835,-666 1626.1835,-717.0252 1668.9144,-763.1592 1698.2294,-788.8051"/>
<polygon fill="#000000" stroke="#000000" points="1696.2066,-791.679 1706.0953,-795.4823 1700.7367,-786.3424 1696.2066,-791.679"/>
</g>
<!-- gx -->
<g id="node26" class="node">
<title>gx</title>
<ellipse fill="none" stroke="#000000" cx="1624.1835" cy="-234" rx="27" ry="18"/>
<text text-anchor="middle" x="1624.1835" y="-229.8" font-family="Times,serif" font-size="14.00" fill="#000000">gx</text>
</g>
<!-- cr&#45;&gt;gx -->
<g id="edge68" class="edge">
<title>cr-&gt;gx</title>
<path fill="none" stroke="#000000" d="M1638.4868,-288.2022C1636.3858,-280.2406 1633.8595,-270.6671 1631.5184,-261.7957"/>
<polygon fill="#000000" stroke="#000000" points="1634.8277,-260.6185 1628.8919,-251.8425 1628.0594,-262.4046 1634.8277,-260.6185"/>
</g>
<!-- vc&#45;&gt;gx -->
<g id="edge92" class="edge">
<title>vc-&gt;gx</title>
<path fill="none" stroke="#000000" d="M1701.3199,-798.6487C1662.0685,-778.1237 1588.1835,-730.8726 1588.1835,-666 1588.1835,-666 1588.1835,-666 1588.1835,-378 1588.1835,-336.2294 1602.6164,-289.6235 1613.205,-261.052"/>
<polygon fill="#000000" stroke="#000000" points="1616.5992,-261.9746 1616.8983,-251.384 1610.0601,-259.4765 1616.5992,-261.9746"/>
</g>
<!-- qn -->
<g id="node28" class="node">
<title>qn</title>
<ellipse fill="none" stroke="#000000" cx="1049.1835" cy="-738" rx="30.7401" ry="18"/>
<text text-anchor="middle" x="1049.1835" y="-733.8" font-family="Times,serif" font-size="14.00" fill="#000000">&amp; qn</text>
</g>
<!-- vc&#45;&gt;qn -->
<g id="edge91" class="edge">
<title>vc-&gt;qn</title>
<path fill="none" stroke="#000000" d="M1695.2643,-806.8133C1586.7643,-795.2571 1213.8503,-755.5385 1089.73,-742.3186"/>
<polygon fill="#000000" stroke="#000000" points="1089.8385,-738.8104 1079.5241,-741.2315 1089.0971,-745.771 1089.8385,-738.8104"/>
</g>
<!-- ks -->
<g id="node42" class="node">
<title>ks</title>
<ellipse fill="none" stroke="#000000" cx="1767.1835" cy="-450" rx="27" ry="18"/>
<text text-anchor="middle" x="1767.1835" y="-445.8" font-family="Times,serif" font-size="14.00" fill="#000000">ks</text>
</g>
<!-- vc&#45;&gt;ks -->
<g id="edge90" class="edge">
<title>vc-&gt;ks</title>
<path fill="none" stroke="#000000" d="M1741.9579,-794.989C1767.2391,-770.6214 1812.1835,-719.7436 1812.1835,-666 1812.1835,-666 1812.1835,-666 1812.1835,-594 1812.1835,-551.3578 1793.9837,-504.7133 1780.7326,-476.4034"/>
<polygon fill="#000000" stroke="#000000" points="1783.7863,-474.678 1776.2899,-467.1911 1777.4812,-477.7187 1783.7863,-474.678"/>
</g>
<!-- hd -->
<g id="node48" class="node">
<title>hd</title>
<ellipse fill="none" stroke="#000000" cx="1725.1835" cy="-882" rx="27" ry="18"/>
<text text-anchor="middle" x="1725.1835" y="-877.8" font-family="Times,serif" font-size="14.00" fill="#000000">hd</text>
</g>
<!-- vc&#45;&gt;hd -->
<g id="edge89" class="edge">
<title>vc-&gt;hd</title>
<path fill="none" stroke="#000000" d="M1731.1037,-827.8425C1731.8913,-835.7236 1732.1182,-845.1774 1731.7844,-853.9647"/>
<polygon fill="#000000" stroke="#000000" points="1728.2749,-853.9908 1731.0992,-864.2022 1735.2593,-854.4583 1728.2749,-853.9908"/>
</g>
<!-- lr -->
<g id="node54" class="node">
<title>lr</title>
<ellipse fill="none" stroke="#000000" cx="1738.1835" cy="-594" rx="27" ry="18"/>
<text text-anchor="middle" x="1738.1835" y="-589.8" font-family="Times,serif" font-size="14.00" fill="#000000">lr</text>
</g>
<!-- vc&#45;&gt;lr -->
<g id="edge88" class="edge">
<title>vc-&gt;lr</title>
<path fill="none" stroke="#000000" d="M1722.6668,-791.888C1718.9479,-761.8037 1713.2345,-699.7212 1721.1835,-648 1722.5421,-639.1598 1725.0829,-629.7811 1727.7938,-621.3637"/>
<polygon fill="#000000" stroke="#000000" points="1731.1835,-622.2687 1731.1168,-611.674 1724.562,-619.9979 1731.1835,-622.2687"/>
</g>
<!-- hv -->
<g id="node55" class="node">
<title>hv</title>
<ellipse fill="none" stroke="#000000" cx="1757.1835" cy="-666" rx="27" ry="18"/>
<text text-anchor="middle" x="1757.1835" y="-661.8" font-family="Times,serif" font-size="14.00" fill="#000000">hv</text>
</g>
<!-- vc&#45;&gt;hv -->
<g id="edge94" class="edge">
<title>vc-&gt;hv</title>
<path fill="none" stroke="#000000" d="M1729.1716,-792.0535C1734.6329,-767.4774 1744.4944,-723.1008 1750.9396,-694.0974"/>
<polygon fill="#000000" stroke="#000000" points="1754.3924,-694.6939 1753.1451,-684.1727 1747.559,-693.1753 1754.3924,-694.6939"/>
</g>
<!-- nh -->
<g id="node59" class="node">
<title>nh</title>
<ellipse fill="none" stroke="#000000" cx="1943.1835" cy="-738" rx="27" ry="18"/>
<text text-anchor="middle" x="1943.1835" y="-733.8" font-family="Times,serif" font-size="14.00" fill="#000000">nh</text>
</g>
<!-- vc&#45;&gt;nh -->
<g id="edge93" class="edge">
<title>vc-&gt;nh</title>
<path fill="none" stroke="#000000" d="M1752.8057,-802.6594C1787.9179,-793.0814 1850.2174,-775.2583 1902.1835,-756 1905.245,-754.8654 1908.4055,-753.6186 1911.5502,-752.327"/>
<polygon fill="#000000" stroke="#000000" points="1912.9885,-755.5187 1920.8216,-748.3848 1910.2494,-749.0769 1912.9885,-755.5187"/>
</g>
<!-- qq&#45;&gt;gf -->
<g id="edge16" class="edge">
<title>qq-&gt;gf</title>
<path fill="none" stroke="#000000" d="M1343.8873,-468.0121C1344.3409,-486.2403 1344.3517,-515.1954 1341.1835,-540 1332.8517,-605.2298 1331.3613,-622.8463 1307.1835,-684 1303.3487,-693.6994 1298.001,-703.7581 1292.8256,-712.5275"/>
<polygon fill="#000000" stroke="#000000" points="1289.796,-710.773 1287.5652,-721.1304 1295.768,-714.4248 1289.796,-710.773"/>
</g>
<!-- qq&#45;&gt;qm -->
<g id="edge15" class="edge">
<title>qq-&gt;qm</title>
<path fill="none" stroke="#000000" d="M1347.8801,-432.2022C1349.9811,-424.2406 1352.5074,-414.6671 1354.8485,-405.7957"/>
<polygon fill="#000000" stroke="#000000" points="1358.3075,-406.4046 1357.475,-395.8425 1351.5392,-404.6185 1358.3075,-406.4046"/>
</g>
<!-- gm -->
<g id="node58" class="node">
<title>gm</title>
<ellipse fill="none" stroke="#000000" cx="1362.1835" cy="-306" rx="27" ry="18"/>
<text text-anchor="middle" x="1362.1835" y="-301.8" font-family="Times,serif" font-size="14.00" fill="#000000">gm</text>
</g>
<!-- qm&#45;&gt;gm -->
<g id="edge95" class="edge">
<title>qm-&gt;gm</title>
<path fill="none" stroke="#000000" d="M1362.1835,-359.8314C1362.1835,-352.131 1362.1835,-342.9743 1362.1835,-334.4166"/>
<polygon fill="#000000" stroke="#000000" points="1365.6836,-334.4132 1362.1835,-324.4133 1358.6836,-334.4133 1365.6836,-334.4132"/>
</g>
<!-- th -->
<g id="node23" class="node">
<title>th</title>
<ellipse fill="none" stroke="#000000" cx="981.1835" cy="-594" rx="28.4501" ry="18"/>
<text text-anchor="middle" x="981.1835" y="-589.8" font-family="Times,serif" font-size="14.00" fill="#000000">&amp; th</text>
</g>
<!-- xn&#45;&gt;th -->
<g id="edge17" class="edge">
<title>xn-&gt;th</title>
<path fill="none" stroke="#000000" d="M1050.9498,-651.0816C1038.1563,-640.6142 1020.8756,-626.4754 1006.7137,-614.8884"/>
<polygon fill="#000000" stroke="#000000" points="1008.7492,-612.0316 998.7933,-608.408 1004.3165,-617.4493 1008.7492,-612.0316"/>
</g>
<!-- rx -->
<g id="node53" class="node">
<title>rx</title>
<ellipse fill="none" stroke="#000000" cx="981.1835" cy="-522" rx="27" ry="18"/>
<text text-anchor="middle" x="981.1835" y="-517.8" font-family="Times,serif" font-size="14.00" fill="#000000">rx</text>
</g>
<!-- th&#45;&gt;rx -->
<g id="edge67" class="edge">
<title>th-&gt;rx</title>
<path fill="none" stroke="#000000" d="M981.1835,-575.8314C981.1835,-568.131 981.1835,-558.9743 981.1835,-550.4166"/>
<polygon fill="#000000" stroke="#000000" points="984.6836,-550.4132 981.1835,-540.4133 977.6836,-550.4133 984.6836,-550.4132"/>
</g>
<!-- nn -->
<g id="node24" class="node">
<title>nn</title>
<ellipse fill="none" stroke="#000000" cx="691.1835" cy="-522" rx="27" ry="18"/>
<text text-anchor="middle" x="691.1835" y="-517.8" font-family="Times,serif" font-size="14.00" fill="#000000">nn</text>
</g>
<!-- nn&#45;&gt;db -->
<g id="edge19" class="edge">
<title>nn-&gt;db</title>
<path fill="none" stroke="#000000" d="M689.7554,-540.1451C686.7922,-577.7945 679.9571,-664.6409 676.41,-709.7103"/>
<polygon fill="#000000" stroke="#000000" points="672.8991,-709.7117 675.6036,-719.9555 679.8775,-710.261 672.8991,-709.7117"/>
</g>
<!-- nn&#45;&gt;ff -->
<g id="edge18" class="edge">
<title>nn-&gt;ff</title>
<path fill="none" stroke="#000000" d="M686.4868,-504.2022C684.3858,-496.2406 681.8595,-486.6671 679.5184,-477.7957"/>
<polygon fill="#000000" stroke="#000000" points="682.8277,-476.6185 676.8919,-467.8425 676.0594,-478.4046 682.8277,-476.6185"/>
</g>
<!-- ff&#45;&gt;pl -->
<g id="edge84" class="edge">
<title>ff-&gt;pl</title>
<path fill="none" stroke="#000000" d="M672.1835,-431.8314C672.1835,-424.131 672.1835,-414.9743 672.1835,-406.4166"/>
<polygon fill="#000000" stroke="#000000" points="675.6836,-406.4132 672.1835,-396.4133 668.6836,-406.4133 675.6836,-406.4132"/>
</g>
<!-- cd -->
<g id="node27" class="node">
<title>cd</title>
<ellipse fill="none" stroke="#000000" cx="1624.1835" cy="-162" rx="27" ry="18"/>
<text text-anchor="middle" x="1624.1835" y="-157.8" font-family="Times,serif" font-size="14.00" fill="#000000">cd</text>
</g>
<!-- gx&#45;&gt;cd -->
<g id="edge20" class="edge">
<title>gx-&gt;cd</title>
<path fill="none" stroke="#000000" d="M1624.1835,-215.8314C1624.1835,-208.131 1624.1835,-198.9743 1624.1835,-190.4166"/>
<polygon fill="#000000" stroke="#000000" points="1627.6836,-190.4132 1624.1835,-180.4133 1620.6836,-190.4133 1627.6836,-190.4132"/>
</g>
<!-- cd&#45;&gt;vc -->
<g id="edge107" class="edge">
<title>cd-&gt;vc</title>
<path fill="none" stroke="#000000" d="M1609.9155,-177.4916C1588.412,-202.5178 1550.1835,-254.2816 1550.1835,-306 1550.1835,-666 1550.1835,-666 1550.1835,-666 1550.1835,-712.4205 1568.5193,-725.1251 1603.1835,-756 1627.3094,-777.4886 1661.3633,-791.5918 1687.3642,-799.9782"/>
<polygon fill="#000000" stroke="#000000" points="1686.6636,-803.4245 1697.2507,-803.0196 1688.7219,-796.7339 1686.6636,-803.4245"/>
</g>
<!-- pm -->
<g id="node57" class="node">
<title>pm</title>
<ellipse fill="none" stroke="#000000" cx="1888.1835" cy="-90" rx="27" ry="18"/>
<text text-anchor="middle" x="1888.1835" y="-85.8" font-family="Times,serif" font-size="14.00" fill="#000000">pm</text>
</g>
<!-- cd&#45;&gt;pm -->
<g id="edge106" class="edge">
<title>cd-&gt;pm</title>
<path fill="none" stroke="#000000" d="M1649.4969,-155.0963C1696.9028,-142.1674 1799.1422,-114.284 1853.1359,-99.5584"/>
<polygon fill="#000000" stroke="#000000" points="1854.22,-102.8907 1862.9467,-96.8828 1852.3781,-96.1373 1854.22,-102.8907"/>
</g>
<!-- qn&#45;&gt;th -->
<g id="edge21" class="edge">
<title>qn-&gt;th</title>
<path fill="none" stroke="#000000" d="M1040.9811,-720.6302C1029.2386,-695.7638 1007.5369,-649.8072 993.7581,-620.6288"/>
<polygon fill="#000000" stroke="#000000" points="996.8499,-618.9793 989.4149,-611.4314 990.5202,-621.9684 996.8499,-618.9793"/>
</g>
<!-- qk -->
<g id="node29" class="node">
<title>qk</title>
<ellipse fill="none" stroke="#000000" cx="1943.1835" cy="-18" rx="27" ry="18"/>
<text text-anchor="middle" x="1943.1835" y="-13.8" font-family="Times,serif" font-size="14.00" fill="#000000">qk</text>
</g>
<!-- qk&#45;&gt;vc -->
<g id="edge22" class="edge">
<title>qk-&gt;vc</title>
<path fill="none" stroke="#000000" d="M1954.0497,-34.5031C1970.0784,-60.4856 1998.1835,-113.0265 1998.1835,-162 1998.1835,-666 1998.1835,-666 1998.1835,-666 1998.1835,-706.8816 2008.0706,-727.0717 1979.1835,-756 1949.6112,-785.6144 1829.3326,-800.6764 1765.4719,-806.7175"/>
<polygon fill="#000000" stroke="#000000" points="1764.9957,-803.2464 1755.3564,-807.6435 1765.6339,-810.2172 1764.9957,-803.2464"/>
</g>
<!-- xf&#45;&gt;th -->
<g id="edge23" class="edge">
<title>xf-&gt;th</title>
<path fill="none" stroke="#000000" d="M960.1048,-648.2022C963.2921,-640.0064 967.1436,-630.1024 970.6778,-621.0145"/>
<polygon fill="#000000" stroke="#000000" points="973.9792,-622.1817 974.3417,-611.593 967.4552,-619.6445 973.9792,-622.1817"/>
</g>
<!-- qj -->
<g id="node31" class="node">
<title>qj</title>
<ellipse fill="none" stroke="#000000" cx="501.1835" cy="-90" rx="27" ry="18"/>
<text text-anchor="middle" x="501.1835" y="-85.8" font-family="Times,serif" font-size="14.00" fill="#000000">qj</text>
</g>
<!-- qj&#45;&gt;db -->
<g id="edge25" class="edge">
<title>qj-&gt;db</title>
<path fill="none" stroke="#000000" d="M497.661,-108.1045C492.6816,-135.3176 484.1835,-188.4358 484.1835,-234 484.1835,-594 484.1835,-594 484.1835,-594 484.1835,-639.5442 498.9127,-654.0035 533.1835,-684 562.0691,-709.283 604.0479,-723.3108 634.6873,-730.6868"/>
<polygon fill="#000000" stroke="#000000" points="634.0812,-734.1382 644.608,-732.9398 635.6315,-727.312 634.0812,-734.1382"/>
</g>
<!-- qj&#45;&gt;xm -->
<g id="edge24" class="edge">
<title>qj-&gt;xm</title>
<path fill="none" stroke="#000000" d="M494.5093,-72.2022C491.4358,-64.0064 487.7219,-54.1024 484.3139,-45.0145"/>
<polygon fill="#000000" stroke="#000000" points="487.5693,-43.7274 480.7808,-35.593 481.015,-46.1853 487.5693,-43.7274"/>
</g>
<!-- fn -->
<g id="node32" class="node">
<title>fn</title>
<ellipse fill="none" stroke="#000000" cx="1457.1835" cy="-90" rx="27" ry="18"/>
<text text-anchor="middle" x="1457.1835" y="-85.8" font-family="Times,serif" font-size="14.00" fill="#000000">fn</text>
</g>
<!-- fn&#45;&gt;gf -->
<g id="edge27" class="edge">
<title>fn-&gt;gf</title>
<path fill="none" stroke="#000000" d="M1460.7059,-108.1045C1465.6853,-135.3176 1474.1835,-188.4358 1474.1835,-234 1474.1835,-594 1474.1835,-594 1474.1835,-594 1474.1835,-672.5903 1370.895,-712.7743 1313.5202,-729.0333"/>
<polygon fill="#000000" stroke="#000000" points="1312.4419,-725.6994 1303.7145,-731.7063 1314.283,-732.453 1312.4419,-725.6994"/>
</g>
<!-- pr -->
<g id="node33" class="node">
<title>pr</title>
<ellipse fill="none" stroke="#000000" cx="1484.1835" cy="-18" rx="27" ry="18"/>
<text text-anchor="middle" x="1484.1835" y="-13.8" font-family="Times,serif" font-size="14.00" fill="#000000">pr</text>
</g>
<!-- fn&#45;&gt;pr -->
<g id="edge26" class="edge">
<title>fn-&gt;pr</title>
<path fill="none" stroke="#000000" d="M1463.8576,-72.2022C1466.9311,-64.0064 1470.6451,-54.1024 1474.053,-45.0145"/>
<polygon fill="#000000" stroke="#000000" points="1477.3519,-46.1853 1477.5861,-35.593 1470.7976,-43.7274 1477.3519,-46.1853"/>
</g>
<!-- pr&#45;&gt;gf -->
<g id="edge105" class="edge">
<title>pr-&gt;gf</title>
<path fill="none" stroke="#000000" d="M1489.9851,-35.9672C1498.1865,-63.0051 1512.1835,-115.9025 1512.1835,-162 1512.1835,-594 1512.1835,-594 1512.1835,-594 1512.1835,-685.3473 1381.7487,-720.4611 1314.8176,-732.4661"/>
<polygon fill="#000000" stroke="#000000" points="1313.9201,-729.0686 1304.6506,-734.1995 1315.0966,-735.969 1313.9201,-729.0686"/>
</g>
<!-- bp&#45;&gt;db -->
<g id="edge56" class="edge">
<title>bp-&gt;db</title>
<path fill="none" stroke="#000000" d="M573.661,-252.1045C568.6816,-279.3176 560.1835,-332.4358 560.1835,-378 560.1835,-594 560.1835,-594 560.1835,-594 560.1835,-648.5274 611.0529,-694.4624 644.8303,-718.953"/>
<polygon fill="#000000" stroke="#000000" points="642.8162,-721.8155 653.0081,-724.7096 646.8455,-716.0914 642.8162,-721.8155"/>
</g>
<!-- jz -->
<g id="node40" class="node">
<title>jz</title>
<ellipse fill="none" stroke="#000000" cx="539.1835" cy="-162" rx="27" ry="18"/>
<text text-anchor="middle" x="539.1835" y="-157.8" font-family="Times,serif" font-size="14.00" fill="#000000">jz</text>
</g>
<!-- bp&#45;&gt;jz -->
<g id="edge57" class="edge">
<title>bp-&gt;jz</title>
<path fill="none" stroke="#000000" d="M568.178,-216.937C563.7007,-208.4537 558.1883,-198.0092 553.1764,-188.513"/>
<polygon fill="#000000" stroke="#000000" points="556.1512,-186.6509 548.3883,-179.4407 549.9605,-189.9182 556.1512,-186.6509"/>
</g>
<!-- cl -->
<g id="node56" class="node">
<title>cl</title>
<ellipse fill="none" stroke="#000000" cx="277.1835" cy="-594" rx="27" ry="18"/>
<text text-anchor="middle" x="277.1835" y="-589.8" font-family="Times,serif" font-size="14.00" fill="#000000">cl</text>
</g>
<!-- vm&#45;&gt;cl -->
<g id="edge83" class="edge">
<title>vm-&gt;cl</title>
<path fill="none" stroke="#000000" d="M306.178,-648.937C301.7007,-640.4537 296.1883,-630.0092 291.1764,-620.513"/>
<polygon fill="#000000" stroke="#000000" points="294.1512,-618.6509 286.3883,-611.4407 287.9605,-621.9182 294.1512,-618.6509"/>
</g>
<!-- mc -->
<g id="node36" class="node">
<title>mc</title>
<ellipse fill="none" stroke="#000000" cx="738.1835" cy="-810" rx="27" ry="18"/>
<text text-anchor="middle" x="738.1835" y="-805.8" font-family="Times,serif" font-size="14.00" fill="#000000">mc</text>
</g>
<!-- mc&#45;&gt;db -->
<g id="edge32" class="edge">
<title>mc-&gt;db</title>
<path fill="none" stroke="#000000" d="M724.2964,-794.3771C715.7765,-784.7921 704.7023,-772.3337 695.1317,-761.5667"/>
<polygon fill="#000000" stroke="#000000" points="697.7462,-759.2398 688.4866,-754.091 692.5143,-763.8904 697.7462,-759.2398"/>
</g>
<!-- mc&#45;&gt;ds -->
<g id="edge31" class="edge">
<title>mc-&gt;ds</title>
<path fill="none" stroke="#000000" d="M753.0064,-794.8616C777.8003,-769.5402 827.8185,-718.4578 856.879,-688.779"/>
<polygon fill="#000000" stroke="#000000" points="859.6392,-690.9628 864.1347,-681.3689 854.6376,-686.0654 859.6392,-690.9628"/>
</g>
<!-- ds&#45;&gt;cc -->
<g id="edge49" class="edge">
<title>ds-&gt;cc</title>
<path fill="none" stroke="#000000" d="M857.0504,-655.3762C831.5708,-643.1459 789.528,-622.9654 760.6522,-609.105"/>
<polygon fill="#000000" stroke="#000000" points="761.9371,-605.8395 751.4073,-604.6674 758.9079,-612.1501 761.9371,-605.8395"/>
</g>
<!-- tj -->
<g id="node38" class="node">
<title>tj</title>
<ellipse fill="none" stroke="#000000" cx="1286.1835" cy="-234" rx="27" ry="18"/>
<text text-anchor="middle" x="1286.1835" y="-229.8" font-family="Times,serif" font-size="14.00" fill="#000000">tj</text>
</g>
<!-- tj&#45;&gt;gf -->
<g id="edge34" class="edge">
<title>tj-&gt;gf</title>
<path fill="none" stroke="#000000" d="M1271.9155,-249.4916C1250.412,-274.5178 1212.1835,-326.2816 1212.1835,-378 1212.1835,-522 1212.1835,-522 1212.1835,-522 1212.1835,-592.8193 1244.2015,-671.5176 1262.9445,-711.5196"/>
<polygon fill="#000000" stroke="#000000" points="1259.814,-713.0863 1267.2845,-720.5991 1266.1295,-710.0674 1259.814,-713.0863"/>
</g>
<!-- lc -->
<g id="node39" class="node">
<title>lc</title>
<ellipse fill="none" stroke="#000000" cx="1286.1835" cy="-162" rx="27" ry="18"/>
<text text-anchor="middle" x="1286.1835" y="-157.8" font-family="Times,serif" font-size="14.00" fill="#000000">lc</text>
</g>
<!-- tj&#45;&gt;lc -->
<g id="edge33" class="edge">
<title>tj-&gt;lc</title>
<path fill="none" stroke="#000000" d="M1286.1835,-215.8314C1286.1835,-208.131 1286.1835,-198.9743 1286.1835,-190.4166"/>
<polygon fill="#000000" stroke="#000000" points="1289.6836,-190.4132 1286.1835,-180.4133 1282.6836,-190.4133 1289.6836,-190.4132"/>
</g>
<!-- lc&#45;&gt;gf -->
<g id="edge76" class="edge">
<title>lc-&gt;gf</title>
<path fill="none" stroke="#000000" d="M1266.6745,-174.4795C1234.5858,-196.7079 1174.1835,-246.4575 1174.1835,-306 1174.1835,-522 1174.1835,-522 1174.1835,-522 1174.1835,-598.6264 1195.7179,-617.1574 1233.1835,-684 1239.195,-694.7252 1247.2942,-705.5267 1254.8424,-714.6209"/>
<polygon fill="#000000" stroke="#000000" points="1252.3792,-717.1253 1261.5438,-722.4415 1257.6947,-712.5705 1252.3792,-717.1253"/>
</g>
<!-- lc&#45;&gt;fn -->
<g id="edge77" class="edge">
<title>lc-&gt;fn</title>
<path fill="none" stroke="#000000" d="M1309.2453,-152.2898C1339.0326,-139.7477 1391.0514,-117.8451 1424.795,-103.6372"/>
<polygon fill="#000000" stroke="#000000" points="1426.3564,-106.7775 1434.2146,-99.6711 1423.64,-100.326 1426.3564,-106.7775"/>
</g>
<!-- jz&#45;&gt;db -->
<g id="edge36" class="edge">
<title>jz-&gt;db</title>
<path fill="none" stroke="#000000" d="M535.661,-180.1045C530.6816,-207.3176 522.1835,-260.4358 522.1835,-306 522.1835,-594 522.1835,-594 522.1835,-594 522.1835,-639.7584 539.5023,-651.9724 572.1835,-684 590.9225,-702.3643 617.1783,-716.0701 638.3584,-725.0784"/>
<polygon fill="#000000" stroke="#000000" points="637.1062,-728.3476 647.6873,-728.8866 639.7518,-721.8668 637.1062,-728.3476"/>
</g>
<!-- jz&#45;&gt;qj -->
<g id="edge35" class="edge">
<title>jz-&gt;qj</title>
<path fill="none" stroke="#000000" d="M530.178,-144.937C525.7007,-136.4537 520.1883,-126.0092 515.1764,-116.513"/>
<polygon fill="#000000" stroke="#000000" points="518.1512,-114.6509 510.3883,-107.4407 511.9605,-117.9182 518.1512,-114.6509"/>
</g>
<!-- sb -->
<g id="node41" class="node">
<title>sb</title>
<ellipse fill="none" stroke="#000000" cx="1738.1835" cy="-522" rx="27" ry="18"/>
<text text-anchor="middle" x="1738.1835" y="-517.8" font-family="Times,serif" font-size="14.00" fill="#000000">sb</text>
</g>
<!-- sb&#45;&gt;vc -->
<g id="edge38" class="edge">
<title>sb-&gt;vc</title>
<path fill="none" stroke="#000000" d="M1724.0605,-537.7156C1715.93,-547.8532 1706.4934,-561.7653 1702.1835,-576 1680.3357,-648.1583 1701.984,-737.9957 1715.739,-782.4442"/>
<polygon fill="#000000" stroke="#000000" points="1712.4878,-783.7686 1718.8684,-792.2267 1719.155,-781.6357 1712.4878,-783.7686"/>
</g>
<!-- sb&#45;&gt;ks -->
<g id="edge37" class="edge">
<title>sb-&gt;ks</title>
<path fill="none" stroke="#000000" d="M1745.2036,-504.5708C1748.5273,-496.3187 1752.5732,-486.2738 1756.2834,-477.0623"/>
<polygon fill="#000000" stroke="#000000" points="1759.6379,-478.1018 1760.1275,-467.5182 1753.1448,-475.4864 1759.6379,-478.1018"/>
</g>
<!-- ks&#45;&gt;vz -->
<g id="edge99" class="edge">
<title>ks-&gt;vz</title>
<path fill="none" stroke="#000000" d="M1767.1835,-431.8314C1767.1835,-424.131 1767.1835,-414.9743 1767.1835,-406.4166"/>
<polygon fill="#000000" stroke="#000000" points="1770.6836,-406.4132 1767.1835,-396.4133 1763.6836,-406.4133 1770.6836,-406.4132"/>
</g>
<!-- bx&#45;&gt;qx -->
<g id="edge41" class="edge">
<title>bx-&gt;qx</title>
<path fill="none" stroke="#000000" d="M78.1623,-673.4113C86.3388,-676.6822 95.1861,-680.5578 103.1835,-684 132.7796,-696.7389 166.3442,-710.8879 190.3965,-721.5061"/>
<polygon fill="#000000" stroke="#000000" points="189.2025,-724.8058 199.7611,-725.681 192.0528,-718.4124 189.2025,-724.8058"/>
</g>
<!-- qp -->
<g id="node44" class="node">
<title>qp</title>
<ellipse fill="none" stroke="#000000" cx="91.1835" cy="-594" rx="27" ry="18"/>
<text text-anchor="middle" x="91.1835" y="-589.8" font-family="Times,serif" font-size="14.00" fill="#000000">qp</text>
</g>
<!-- bx&#45;&gt;qp -->
<g id="edge42" class="edge">
<title>bx-&gt;qp</title>
<path fill="none" stroke="#000000" d="M62.1889,-648.937C66.6662,-640.4537 72.1786,-630.0092 77.1905,-620.513"/>
<polygon fill="#000000" stroke="#000000" points="80.4064,-621.9182 81.9787,-611.4407 74.2157,-618.6509 80.4064,-621.9182"/>
</g>
<!-- qp&#45;&gt;qx -->
<g id="edge86" class="edge">
<title>qp-&gt;qx</title>
<path fill="none" stroke="#000000" d="M95.8893,-612.0213C101.7359,-631.589 113.3136,-662.8685 132.1835,-684 147.3763,-701.0138 169.2305,-714.3003 187.5987,-723.4366"/>
<polygon fill="#000000" stroke="#000000" points="186.2993,-726.6943 196.8327,-727.8338 189.3089,-720.3743 186.2993,-726.6943"/>
</g>
<!-- qp&#45;&gt;cb -->
<g id="edge85" class="edge">
<title>qp-&gt;cb</title>
<path fill="none" stroke="#000000" d="M97.116,-576.2022C99.8189,-568.0936 103.0792,-558.3129 106.0818,-549.3049"/>
<polygon fill="#000000" stroke="#000000" points="109.4772,-550.1867 109.3191,-539.593 102.8364,-547.973 109.4772,-550.1867"/>
</g>
<!-- broadcaster -->
<g id="node45" class="node">
<title>broadcaster</title>
<ellipse fill="none" stroke="#000000" cx="975.1835" cy="-954" rx="55.5753" ry="18"/>
<text text-anchor="middle" x="975.1835" y="-949.8" font-family="Times,serif" font-size="14.00" fill="#000000">broadcaster</text>
</g>
<!-- broadcaster&#45;&gt;bx -->
<g id="edge46" class="edge">
<title>broadcaster-&gt;bx</title>
<path fill="none" stroke="#000000" d="M919.7314,-952.2328C761.7316,-946.8621 316.8124,-929.2865 258.1835,-900 164.4498,-853.1778 95.0553,-742.942 66.9392,-692.2906"/>
<polygon fill="#000000" stroke="#000000" points="69.8821,-690.3768 62.0219,-683.2727 63.7364,-693.7279 69.8821,-690.3768"/>
</g>
<!-- broadcaster&#45;&gt;sr -->
<g id="edge43" class="edge">
<title>broadcaster-&gt;sr</title>
<path fill="none" stroke="#000000" d="M1018.1048,-942.5118C1071.0048,-928.3526 1159.8988,-904.5595 1208.9776,-891.4231"/>
<polygon fill="#000000" stroke="#000000" points="1210.0639,-894.7557 1218.8189,-888.789 1208.254,-887.9937 1210.0639,-894.7557"/>
</g>
<!-- broadcaster&#45;&gt;ch -->
<g id="edge44" class="edge">
<title>broadcaster-&gt;ch</title>
<path fill="none" stroke="#000000" d="M932.2622,-942.5118C879.3621,-928.3526 790.4681,-904.5595 741.3893,-891.4231"/>
<polygon fill="#000000" stroke="#000000" points="742.113,-887.9937 731.548,-888.789 740.303,-894.7557 742.113,-887.9937"/>
</g>
<!-- broadcaster&#45;&gt;hd -->
<g id="edge45" class="edge">
<title>broadcaster-&gt;hd</title>
<path fill="none" stroke="#000000" d="M1028.5204,-948.8797C1172.4121,-935.066 1565.9386,-897.2875 1688.3452,-885.5365"/>
<polygon fill="#000000" stroke="#000000" points="1688.7245,-889.0162 1698.3442,-884.5766 1688.0555,-882.0483 1688.7245,-889.0162"/>
</g>
<!-- sr&#45;&gt;gf -->
<g id="edge70" class="edge">
<title>sr-&gt;gf</title>
<path fill="none" stroke="#000000" d="M1243.5631,-863.7623C1246.591,-838.958 1256.2426,-794.3758 1264.6321,-765.5009"/>
<polygon fill="#000000" stroke="#000000" points="1268.0705,-766.2257 1267.6512,-755.6392 1261.3771,-764.1765 1268.0705,-766.2257"/>
</g>
<!-- vl -->
<g id="node51" class="node">
<title>vl</title>
<ellipse fill="none" stroke="#000000" cx="1212.1835" cy="-810" rx="27" ry="18"/>
<text text-anchor="middle" x="1212.1835" y="-805.8" font-family="Times,serif" font-size="14.00" fill="#000000">vl</text>
</g>
<!-- sr&#45;&gt;vl -->
<g id="edge71" class="edge">
<title>sr-&gt;vl</title>
<path fill="none" stroke="#000000" d="M1236.4372,-864.5708C1232.7031,-856.1691 1228.143,-845.9091 1223.9889,-836.5623"/>
<polygon fill="#000000" stroke="#000000" points="1227.1182,-834.9853 1219.8584,-827.2687 1220.7215,-837.8283 1227.1182,-834.9853"/>
</g>
<!-- ch&#45;&gt;db -->
<g id="edge47" class="edge">
<title>ch-&gt;db</title>
<path fill="none" stroke="#000000" d="M697.739,-864.6302C689.7786,-840.2465 679.5493,-795.5835 674.9858,-766.3467"/>
<polygon fill="#000000" stroke="#000000" points="678.4368,-765.7531 673.5755,-756.3394 671.5053,-766.7299 678.4368,-765.7531"/>
</g>
<!-- ch&#45;&gt;mc -->
<g id="edge48" class="edge">
<title>ch-&gt;mc</title>
<path fill="none" stroke="#000000" d="M713.9298,-864.5708C717.6639,-856.1691 722.2239,-845.9091 726.378,-836.5623"/>
<polygon fill="#000000" stroke="#000000" points="729.6454,-837.8283 730.5085,-827.2687 723.2487,-834.9853 729.6454,-837.8283"/>
</g>
<!-- hd&#45;&gt;vc -->
<g id="edge108" class="edge">
<title>hd-&gt;vc</title>
<path fill="none" stroke="#000000" d="M1719.2677,-864.2022C1718.478,-856.3271 1718.2489,-846.875 1718.5806,-838.0852"/>
<polygon fill="#000000" stroke="#000000" points="1722.0904,-838.0532 1719.2633,-827.8425 1715.1059,-837.5876 1722.0904,-838.0532"/>
</g>
<!-- hd&#45;&gt;nh -->
<g id="edge109" class="edge">
<title>hd-&gt;nh</title>
<path fill="none" stroke="#000000" d="M1744.5295,-869.221C1783.3132,-843.6024 1870.6847,-785.8891 1915.51,-756.2797"/>
<polygon fill="#000000" stroke="#000000" points="1917.4659,-759.1825 1923.8808,-750.7504 1913.6077,-753.3417 1917.4659,-759.1825"/>
</g>
<!-- cc&#45;&gt;nn -->
<g id="edge80" class="edge">
<title>cc-&gt;nn</title>
<path fill="none" stroke="#000000" d="M720.178,-576.937C715.7007,-568.4537 710.1883,-558.0092 705.1764,-548.513"/>
<polygon fill="#000000" stroke="#000000" points="708.1512,-546.6509 700.3883,-539.4407 701.9605,-549.9182 708.1512,-546.6509"/>
</g>
<!-- zl&#45;&gt;th -->
<g id="edge58" class="edge">
<title>zl-&gt;th</title>
<path fill="none" stroke="#000000" d="M793.0341,-657.5998C830.9074,-644.7975 903.2094,-620.3574 946.3184,-605.7854"/>
<polygon fill="#000000" stroke="#000000" points="947.4782,-609.0879 955.8308,-602.5699 945.2366,-602.4566 947.4782,-609.0879"/>
</g>
<!-- vl&#45;&gt;gf -->
<g id="edge59" class="edge">
<title>vl-&gt;gf</title>
<path fill="none" stroke="#000000" d="M1226.0705,-794.3771C1234.5904,-784.7921 1245.6647,-772.3337 1255.2353,-761.5667"/>
<polygon fill="#000000" stroke="#000000" points="1257.8526,-763.8904 1261.8804,-754.091 1252.6208,-759.2398 1257.8526,-763.8904"/>
</g>
<!-- vl&#45;&gt;fj -->
<g id="edge60" class="edge">
<title>vl-&gt;fj</title>
<path fill="none" stroke="#000000" d="M1204.1017,-792.6302C1192.5319,-767.7638 1171.1493,-721.8072 1157.5732,-692.6288"/>
<polygon fill="#000000" stroke="#000000" points="1160.6858,-691.0215 1153.2939,-683.4314 1154.3391,-693.9745 1160.6858,-691.0215"/>
</g>
<!-- fj&#45;&gt;zd -->
<g id="edge100" class="edge">
<title>fj-&gt;zd</title>
<path fill="none" stroke="#000000" d="M1165.6035,-653.9488C1185.3969,-642.2675 1215.6228,-624.4293 1237.9608,-611.2461"/>
<polygon fill="#000000" stroke="#000000" points="1239.8636,-614.1873 1246.6968,-606.0905 1236.3058,-608.1589 1239.8636,-614.1873"/>
</g>
<!-- lr&#45;&gt;sb -->
<g id="edge72" class="edge">
<title>lr-&gt;sb</title>
<path fill="none" stroke="#000000" d="M1738.1835,-575.8314C1738.1835,-568.131 1738.1835,-558.9743 1738.1835,-550.4166"/>
<polygon fill="#000000" stroke="#000000" points="1741.6836,-550.4132 1738.1835,-540.4133 1734.6836,-550.4133 1741.6836,-550.4132"/>
</g>
<!-- hv&#45;&gt;lr -->
<g id="edge73" class="edge">
<title>hv-&gt;lr</title>
<path fill="none" stroke="#000000" d="M1752.4868,-648.2022C1750.3858,-640.2406 1747.8595,-630.6671 1745.5184,-621.7957"/>
<polygon fill="#000000" stroke="#000000" points="1748.8277,-620.6185 1742.8919,-611.8425 1742.0594,-622.4046 1748.8277,-620.6185"/>
</g>
<!-- cl&#45;&gt;qx -->
<g id="edge74" class="edge">
<title>cl-&gt;qx</title>
<path fill="none" stroke="#000000" d="M270.3842,-611.8017C260.9113,-636.6036 243.6597,-681.7713 232.5702,-710.8056"/>
<polygon fill="#000000" stroke="#000000" points="229.226,-709.7521 228.9275,-720.3428 235.7653,-712.2498 229.226,-709.7521"/>
</g>
<!-- cl&#45;&gt;bf -->
<g id="edge75" class="edge">
<title>cl-&gt;bf</title>
<path fill="none" stroke="#000000" d="M268.178,-576.937C263.7007,-568.4537 258.1883,-558.0092 253.1764,-548.513"/>
<polygon fill="#000000" stroke="#000000" points="256.1512,-546.6509 248.3883,-539.4407 249.9605,-549.9182 256.1512,-546.6509"/>
</g>
<!-- pm&#45;&gt;vc -->
<g id="edge78" class="edge">
<title>pm-&gt;vc</title>
<path fill="none" stroke="#000000" d="M1888.1835,-108.1854C1888.1835,-135.5017 1888.1835,-188.75 1888.1835,-234 1888.1835,-666 1888.1835,-666 1888.1835,-666 1888.1835,-733.473 1808.7679,-776.9114 1760.8018,-796.9942"/>
<polygon fill="#000000" stroke="#000000" points="1759.3275,-793.8151 1751.3722,-800.8126 1761.9548,-800.3033 1759.3275,-793.8151"/>
</g>
<!-- pm&#45;&gt;qk -->
<g id="edge79" class="edge">
<title>pm-&gt;qk</title>
<path fill="none" stroke="#000000" d="M1900.6638,-73.6621C1907.6959,-64.4564 1916.6181,-52.7764 1924.4718,-42.4953"/>
<polygon fill="#000000" stroke="#000000" points="1927.4634,-44.3446 1930.7525,-34.2733 1921.9007,-40.0953 1927.4634,-44.3446"/>
</g>
<!-- gm&#45;&gt;gf -->
<g id="edge82" class="edge">
<title>gm-&gt;gf</title>
<path fill="none" stroke="#000000" d="M1376.4514,-321.4916C1397.9549,-346.5178 1436.1835,-398.2816 1436.1835,-450 1436.1835,-594 1436.1835,-594 1436.1835,-594 1436.1835,-660.9532 1357.8209,-704.7206 1310.7771,-724.9632"/>
<polygon fill="#000000" stroke="#000000" points="1309.4217,-721.7362 1301.5359,-728.8118 1312.113,-728.1982 1309.4217,-721.7362"/>
</g>
<!-- gm&#45;&gt;tj -->
<g id="edge81" class="edge">
<title>gm-&gt;tj</title>
<path fill="none" stroke="#000000" d="M1346.4362,-291.0816C1335.7365,-280.945 1321.4025,-267.3654 1309.3998,-255.9944"/>
<polygon fill="#000000" stroke="#000000" points="1311.5772,-253.236 1301.9105,-248.8993 1306.763,-258.3177 1311.5772,-253.236"/>
</g>
<!-- nh&#45;&gt;hv -->
<g id="edge96" class="edge">
<title>nh-&gt;hv</title>
<path fill="none" stroke="#000000" d="M1919.6264,-728.8812C1886.7834,-716.1677 1827.0953,-693.0626 1789.9361,-678.6784"/>
<polygon fill="#000000" stroke="#000000" points="1791.1384,-675.3908 1780.5492,-675.0448 1788.6114,-681.9188 1791.1384,-675.3908"/>
</g>
</g>
</svg>